<svg width="1001" height="324" viewBox="0 0 1001 324" fill="none" xmlns="http://www.w3.org/2000/svg">
<path d="M433.353 318.984H352.342L403.012 5.6792H484.018L433.353 318.984Z" fill="#292929"/>
<path d="M727.023 13.3386C711.045 6.99935 685.701 0 654.363 0C574.363 0 518.027 42.6605 517.681 103.652C517.017 148.652 558.016 173.646 588.68 188.65C620.022 203.982 630.676 213.989 630.676 227.656C630.357 248.645 605.35 258.32 582.026 258.32C549.683 258.32 532.353 253.332 506.017 241.655L495.35 236.649L484.013 306.979C503.014 315.635 538.019 323.316 574.363 323.653C659.365 323.653 714.704 281.653 715.359 216.656C715.683 180.991 694.034 153.662 647.359 131.331C619.025 116.995 601.673 107.329 601.673 92.6615C602.006 79.3274 616.35 65.6698 648.334 65.6698C674.67 65.0008 694.02 71.3313 708.679 77.6661L716.006 80.993L727.023 13.3386Z" fill="#292929"/>
<path d="M834.694 207.991C841.365 189.992 867.037 120.331 867.037 120.331C866.7 121 873.695 102 877.695 90.3358L883.357 117.332C883.357 117.332 898.698 192.327 902.029 207.991C889.368 207.991 850.695 207.991 834.694 207.991ZM934.691 5.6792H872.029C852.706 5.6792 838.025 11.3407 829.688 31.6742L709.357 318.979H794.359C794.359 318.979 808.353 280.31 811.361 271.982C820.686 271.982 903.376 271.982 915.372 271.982C917.698 282.982 925.038 318.979 925.038 318.979H1000.05L934.691 5.6792Z" fill="#292929"/>
<path d="M284.678 5.6792L205.342 219.323L196.673 175.994C182.005 125.997 136.004 71.6768 84.6699 44.6673L157.339 318.652H243.006L370.34 5.6792H284.678Z" fill="#292929"/>
<path d="M131.672 5.6792H1.33341L0 12.0096C101.672 38.0091 169.008 100.68 196.673 176.007L168.339 32.0153C163.674 12.0052 149.338 6.33926 131.672 5.6792Z" fill="#292929"/>
</svg>
